<?xml version="1.0" encoding="utf-8"?>
<!-- Generator: Adobe Illustrator 23.0.1, SVG Export Plug-In . SVG Version: 6.00 Build 0)  -->
<svg version="1.1" id="Layer_1" xmlns="http://www.w3.org/2000/svg" xmlns:xlink="http://www.w3.org/1999/xlink" x="0px" y="0px"
	 viewBox="0 0 48 48" style="enable-background:new 0 0 48 48;" xml:space="preserve">
<style type="text/css">
	.st0{opacity:0.54;}
</style>
<g class="st0">
	<path d="M45.2,28.3H41c-0.8,0-1.5-0.7-1.5-1.5V14.2c0-1.5-1.2-2.9-2.8-2.9c-1.6,0-2.9,1.2-2.9,2.8v14.1c0,3.1,2.5,5.6,5.6,5.6h5.7
		c1.6,0,2.8-1.3,2.8-2.8C48,29.5,46.7,28.3,45.2,28.3z"/>
	<path d="M31.2,22.5c0-1.6-1.3-2.8-2.9-2.8c-1.5,0-2.8,1.4-2.8,2.9v6.9c0,0.8-0.7,1.5-1.5,1.5h-4.2c-1.6,0-2.8,1.3-2.8,2.8
		c0,1.6,1.3,2.8,2.8,2.8h5.7c3.1,0,5.6-2.5,5.6-5.6V22.5z"/>
	<path d="M11.3,14.1c-1.5,0-2.8,1.4-2.8,2.9V24c0,0.8-0.7,1.5-1.5,1.5H2.8c-1.6,0-2.8,1.3-2.8,2.8c0,1.6,1.3,2.8,2.8,2.8h5.7
		c3.1,0,5.6-2.5,5.6-5.6v-8.5C14.2,15.4,12.9,14.1,11.3,14.1z"/>
	<path d="M19.8,28.2L19.8,28.2c1.6,0,2.8-1.3,2.8-2.8V11.3c0-1.6-1.3-2.8-2.8-2.8c-1.6,0-2.8,1.3-2.8,2.8v14.1
		C17,26.9,18.2,28.2,19.8,28.2z"/>
	<circle cx="28.3" cy="14.1" r="2.8"/>
	<circle cx="33.8" cy="36.7" r="2.8"/>
</g>
</svg>
