<?xml version="1.0" encoding="utf-8"?>
<!-- Generator: Adobe Illustrator 23.0.1, SVG Export Plug-In . SVG Version: 6.00 Build 0)  -->
<svg version="1.1" id="Layer_1" xmlns="http://www.w3.org/2000/svg" xmlns:xlink="http://www.w3.org/1999/xlink" x="0px" y="0px"
	 viewBox="0 0 256 256" style="enable-background:new 0 0 256 256;" xml:space="preserve">
<style type="text/css">
	.st0{fill:#73B3FF;}
	.st1{fill:#3390FF;}
	.st2{fill:#2979FF;}
	.st3{fill:#ED3248;}
	.st4{fill:#FFAC33;}
</style>
<circle class="st0" cx="108" cy="99.8" r="14.9"/>
<circle class="st1" cx="57.8" cy="130.7" r="14.9"/>
<path class="st2" d="M224.3,85.5c-3-6.5-11.1-8.9-17.2-5.2l-80.6,49.6l-80.6,49.6c-6.1,3.8-7.6,12.1-3.1,17.6
	c33.3,41.4,93.7,52.8,140,24.3C229.1,192.9,246.2,133.9,224.3,85.5z M152.9,170.8c-7.6,5.4-18.4,2.6-22.3-6.1
	c-2.9-6.4-0.8-14.2,5-18.3c7.6-5.4,18.4-2.6,22.3,6.1C160.7,159,158.6,166.7,152.9,170.8z"/>
<circle class="st3" cx="158.2" cy="68.9" r="14.9"/>
<circle class="st4" cx="77.1" cy="49.6" r="14.9"/>
</svg>
