<?xml version="1.0" encoding="utf-8"?>
<!-- Generator: Adobe Illustrator 23.0.1, SVG Export Plug-In . SVG Version: 6.00 Build 0)  -->
<svg version="1.1" id="Layer_1" xmlns="http://www.w3.org/2000/svg" xmlns:xlink="http://www.w3.org/1999/xlink" x="0px" y="0px"
	 viewBox="0 0 48 48" style="enable-background:new 0 0 48 48;" xml:space="preserve">
<style type="text/css">
	.st0{opacity:0.54;}
	.st1{clip-path:url(#SVGID_2_);fill:#BABCBE;}
	.st2{clip-path:url(#SVGID_4_);fill:#BABCBE;}
	.st3{clip-path:url(#SVGID_6_);fill:#BABCBE;}
	.st4{clip-path:url(#SVGID_8_);fill:#BABCBE;}
	.st5{clip-path:url(#SVGID_10_);fill:#BABCBE;}
	.st6{clip-path:url(#SVGID_12_);}
	.st7{fill:#757575;}
	.st8{fill:#FFFFFF;}
	.st9{clip-path:url(#SVGID_14_);fill:#FFFFFF;}
	.st10{clip-path:url(#SVGID_16_);fill:#FFFFFF;}
	.st11{clip-path:url(#SVGID_18_);fill:#FFFFFF;}
	.st12{clip-path:url(#SVGID_20_);fill:#FFFFFF;}
	.st13{clip-path:url(#SVGID_22_);fill:#FFFFFF;}
	.st14{clip-path:url(#SVGID_24_);fill:#BABCBE;}
	.st15{clip-path:url(#SVGID_26_);fill:#BABCBE;}
	.st16{clip-path:url(#SVGID_28_);fill:#BABCBE;}
	.st17{clip-path:url(#SVGID_30_);fill:#BABCBE;}
	.st18{clip-path:url(#SVGID_32_);fill:#BABCBE;}
	
		.st19{fill-rule:evenodd;clip-rule:evenodd;fill:none;stroke:#FFFFFF;stroke-width:0.4;stroke-linecap:round;stroke-linejoin:round;stroke-miterlimit:10;}
</style>
<g class="st0">
	<defs>
		<path id="SVGID_1_" class="st0" d="M44.7,29.4V4.1H5v25.3c0,0-1.5,7.2,2.8,14c0,0,5.1,0.1,9.7-0.5c0,0-2.8-6.1-2.7-13.5
			c0,0.6-0.9,7.2,3.7,13.1c0,0,5.2,0.1,8.6-0.1c-2.5-4.8-2.5-10.1-2.5-10.1c0,3.5,1.6,7.5,3.8,10.4c1.8,0,6-0.1,8.1-0.3
			c0,0-2.7-7-2.4-13c0.3,8.1,3.3,13.4,3.3,13.4c5.1,0.5,10.1-0.1,10.1-0.1C43.8,34.8,44.7,29.4,44.7,29.4"/>
	</defs>
	<clipPath id="SVGID_2_">
		<use xlink:href="#SVGID_1_"  style="overflow:visible;"/>
	</clipPath>
	<rect x="4.4" y="3.7" class="st1" width="43.5" height="40.1"/>
</g>
<g>
	<defs>
		<line id="SVGID_3_" x1="4.7" y1="27.7" x2="13.8" y2="27.7"/>
	</defs>
	<clipPath id="SVGID_4_">
		<use xlink:href="#SVGID_3_"  style="overflow:visible;"/>
	</clipPath>
	<rect x="4.3" y="27.3" class="st2" width="9.8" height="0.8"/>
</g>
<g>
	<defs>
		<path id="SVGID_5_" d="M13.7,27.7h-0.4c0,0-0.1,0-0.1-0.1c0,0,0-0.1,0.1-0.1h0.4C13.7,27.6,13.8,27.6,13.7,27.7
			C13.8,27.7,13.7,27.7,13.7,27.7 M12.8,27.7h-0.4c0,0-0.1,0-0.1-0.1c0,0,0-0.1,0.1-0.1h0.4C12.9,27.6,12.9,27.6,12.8,27.7
			C12.9,27.7,12.9,27.7,12.8,27.7 M12,27.7h-0.4c0,0-0.1,0-0.1-0.1c0,0,0-0.1,0.1-0.1H12C12,27.6,12.1,27.6,12,27.7
			C12.1,27.7,12,27.7,12,27.7 M11.1,27.7h-0.4c0,0-0.1,0-0.1-0.1c0,0,0-0.1,0.1-0.1h0.4C11.2,27.6,11.2,27.6,11.1,27.7
			C11.2,27.7,11.2,27.7,11.1,27.7 M10.3,27.7H9.9c0,0-0.1,0-0.1-0.1c0,0,0-0.1,0.1-0.1h0.4C10.3,27.6,10.3,27.6,10.3,27.7
			C10.3,27.7,10.3,27.7,10.3,27.7 M9.4,27.7H9c0,0-0.1,0-0.1-0.1c0,0,0-0.1,0.1-0.1h0.4C9.5,27.6,9.5,27.6,9.4,27.7
			C9.5,27.7,9.5,27.7,9.4,27.7 M8.6,27.7H8.1c0,0-0.1,0-0.1-0.1c0,0,0-0.1,0.1-0.1h0.4C8.6,27.6,8.6,27.6,8.6,27.7
			C8.6,27.7,8.6,27.7,8.6,27.7 M7.7,27.7H7.3c0,0-0.1,0-0.1-0.1c0,0,0-0.1,0.1-0.1h0.4C7.8,27.6,7.8,27.6,7.7,27.7
			C7.8,27.7,7.8,27.7,7.7,27.7 M6.9,27.7H6.4c0,0-0.1,0-0.1-0.1c0,0,0-0.1,0.1-0.1h0.4C6.9,27.6,6.9,27.6,6.9,27.7
			C6.9,27.7,6.9,27.7,6.9,27.7 M6,27.7H5.6c0,0-0.1,0-0.1-0.1c0,0,0-0.1,0.1-0.1H6C6.1,27.6,6.1,27.6,6,27.7
			C6.1,27.7,6.1,27.7,6,27.7 M5.2,27.7H4.7c0,0-0.1,0-0.1-0.1c0,0,0-0.1,0.1-0.1h0.4C5.2,27.6,5.2,27.6,5.2,27.7
			C5.2,27.7,5.2,27.7,5.2,27.7"/>
	</defs>
	<clipPath id="SVGID_6_">
		<use xlink:href="#SVGID_5_"  style="overflow:visible;"/>
	</clipPath>
	<rect x="4.3" y="27.2" class="st3" width="9.8" height="0.9"/>
</g>
<g>
	<defs>
		<path id="SVGID_7_" d="M23.4,27.7H23c0,0-0.1,0-0.1-0.1c0,0,0-0.1,0.1-0.1h0.4C23.5,27.6,23.5,27.6,23.4,27.7
			C23.5,27.7,23.5,27.7,23.4,27.7 M22.6,27.7h-0.4c0,0-0.1,0-0.1-0.1c0,0,0-0.1,0.1-0.1h0.4C22.6,27.6,22.7,27.6,22.6,27.7
			C22.7,27.7,22.6,27.7,22.6,27.7 M21.7,27.7h-0.4c0,0-0.1,0-0.1-0.1c0,0,0-0.1,0.1-0.1h0.4C21.8,27.6,21.8,27.6,21.7,27.7
			C21.8,27.7,21.8,27.7,21.7,27.7 M20.9,27.7h-0.4c0,0-0.1,0-0.1-0.1c0,0,0-0.1,0.1-0.1h0.4C20.9,27.6,20.9,27.6,20.9,27.7
			C20.9,27.7,20.9,27.7,20.9,27.7 M20,27.7h-0.4c0,0-0.1,0-0.1-0.1c0,0,0-0.1,0.1-0.1H20C20.1,27.6,20.1,27.6,20,27.7
			C20.1,27.7,20.1,27.7,20,27.7 M19.2,27.7h-0.4c0,0-0.1,0-0.1-0.1c0,0,0-0.1,0.1-0.1h0.4C19.2,27.6,19.2,27.6,19.2,27.7
			C19.2,27.7,19.2,27.7,19.2,27.7 M18.3,27.7h-0.4c0,0-0.1,0-0.1-0.1c0,0,0-0.1,0.1-0.1h0.4C18.3,27.6,18.4,27.6,18.3,27.7
			C18.4,27.7,18.3,27.7,18.3,27.7 M17.5,27.7H17c0,0-0.1,0-0.1-0.1c0,0,0-0.1,0.1-0.1h0.4C17.5,27.6,17.5,27.6,17.5,27.7
			C17.5,27.7,17.5,27.7,17.5,27.7 M16.6,27.7h-0.4c0,0-0.1,0-0.1-0.1c0,0,0-0.1,0.1-0.1h0.4C16.6,27.6,16.7,27.6,16.6,27.7
			C16.7,27.7,16.6,27.7,16.6,27.7 M15.7,27.7h-0.4c0,0-0.1,0-0.1-0.1c0,0,0-0.1,0.1-0.1h0.4C15.8,27.6,15.8,27.6,15.7,27.7
			C15.8,27.7,15.8,27.7,15.7,27.7"/>
	</defs>
	<clipPath id="SVGID_8_">
		<use xlink:href="#SVGID_7_"  style="overflow:visible;"/>
	</clipPath>
	<rect x="14.9" y="27.2" class="st4" width="9" height="0.9"/>
</g>
<g>
	<defs>
		<path id="SVGID_9_" d="M42.8,27.7h-0.4c0,0-0.1,0-0.1-0.1c0,0,0-0.1,0.1-0.1h0.4C42.9,27.6,42.9,27.6,42.8,27.7
			C42.9,27.7,42.9,27.7,42.8,27.7 M42,27.7h-0.4c0,0-0.1,0-0.1-0.1c0,0,0-0.1,0.1-0.1H42C42,27.6,42,27.6,42,27.7
			C42,27.7,42,27.7,42,27.7 M41.1,27.7h-0.4c0,0-0.1,0-0.1-0.1c0,0,0-0.1,0.1-0.1h0.4C41.2,27.6,41.2,27.6,41.1,27.7
			C41.2,27.7,41.2,27.7,41.1,27.7 M40.3,27.7h-0.4c0,0-0.1,0-0.1-0.1c0,0,0-0.1,0.1-0.1h0.4C40.3,27.6,40.3,27.6,40.3,27.7
			C40.3,27.7,40.3,27.7,40.3,27.7 M39.4,27.7H39c0,0-0.1,0-0.1-0.1c0,0,0-0.1,0.1-0.1h0.4C39.4,27.6,39.5,27.6,39.4,27.7
			C39.5,27.7,39.4,27.7,39.4,27.7 M38.5,27.7h-0.4c0,0-0.1,0-0.1-0.1c0,0,0-0.1,0.1-0.1h0.4C38.6,27.6,38.6,27.6,38.5,27.7
			C38.6,27.7,38.6,27.7,38.5,27.7 M37.7,27.7h-0.4c0,0-0.1,0-0.1-0.1c0,0,0-0.1,0.1-0.1h0.4C37.7,27.6,37.8,27.6,37.7,27.7
			C37.8,27.7,37.7,27.7,37.7,27.7 M36.8,27.7h-0.4c0,0-0.1,0-0.1-0.1c0,0,0-0.1,0.1-0.1h0.4C36.9,27.6,36.9,27.6,36.8,27.7
			C36.9,27.7,36.9,27.7,36.8,27.7 M36,27.7h-0.4c0,0-0.1,0-0.1-0.1c0,0,0-0.1,0.1-0.1H36C36,27.6,36.1,27.6,36,27.7
			C36.1,27.7,36,27.7,36,27.7 M35.1,27.7h-0.4c0,0-0.1,0-0.1-0.1c0,0,0-0.1,0.1-0.1h0.4C35.2,27.6,35.2,27.6,35.1,27.7
			C35.2,27.7,35.2,27.7,35.1,27.7"/>
	</defs>
	<clipPath id="SVGID_10_">
		<use xlink:href="#SVGID_9_"  style="overflow:visible;"/>
	</clipPath>
	<rect x="34.2" y="27.2" class="st5" width="9" height="0.9"/>
</g>
<g>
	<defs>
		<path id="SVGID_11_" d="M43.9,27.7V2.4H4.3v25.3c0,0,0.3,5.9-3.3,13.7c0,0,5.6,0.2,10.7-0.4c0,0,3.1-5.3,3.3-13.4
			c0.3,6-2.4,13-2.4,13c2.5,0.3,10,0.3,10,0.3c0.1-0.1,0.1-0.3,0.2-0.5c3.5,0.2,6.8,0.2,6.8,0.2c4.6-5.9,4.7-12.4,4.7-13
			c0.1,7.4-3.9,13.3-3.9,13.3c4.3,0.2,9.8-0.1,9.8-0.1C44.3,34,43.9,27.7,43.9,27.7"/>
	</defs>
	<use xlink:href="#SVGID_11_"  style="overflow:visible;fill-rule:evenodd;clip-rule:evenodd;fill:#757575;"/>
	<clipPath id="SVGID_12_">
		<use xlink:href="#SVGID_11_"  style="overflow:visible;"/>
	</clipPath>
	<g class="st6">
		<rect x="0.4" y="1.9" class="st7" width="44" height="40.1"/>
		<path class="st8" d="M44.3,2.1v39.8H0.6V2.1H44.3 M44.6,1.8h-0.3H0.6H0.3v0.3v39.8v0.3h0.3h43.7h0.3v-0.3V2.1V1.8L44.6,1.8z"/>
	</g>
	
		<use xlink:href="#SVGID_11_"  style="overflow:visible;fill-rule:evenodd;clip-rule:evenodd;fill:none;stroke:#FFFFFF;stroke-width:0.3;stroke-miterlimit:10;"/>
</g>
<g>
	<defs>
		<path id="SVGID_13_" d="M32.6,20.5c-0.4,0-0.8-0.3-0.9-0.7c-0.2-0.5,0.1-1,0.6-1.2c4.4-1.4,4.4-2.5,4.5-3.1
			c0.1-0.9-0.6-2.1-0.9-2.5c-0.3-0.4-0.2-1,0.2-1.3c0.4-0.3,1-0.2,1.3,0.2c0.1,0.2,1.4,2,1.3,3.7c-0.1,2.1-1.7,3.5-5.8,4.8
			C32.8,20.4,32.7,20.5,32.6,20.5"/>
	</defs>
	<use xlink:href="#SVGID_13_"  style="overflow:visible;fill-rule:evenodd;clip-rule:evenodd;fill:#FFFFFF;"/>
	<clipPath id="SVGID_14_">
		<use xlink:href="#SVGID_13_"  style="overflow:visible;"/>
	</clipPath>
	<rect x="31.4" y="11.2" class="st9" width="7.7" height="9.5"/>
</g>
<g>
	<defs>
		<path id="SVGID_15_" d="M20,23.8c-0.3,0-0.5-0.1-0.7-0.4c-0.3-0.4-0.3-1,0.2-1.3c1.9-1.5,3.2-2.9,4-4c-0.5-0.2-1-0.6-1.2-1.2
			c-0.2-0.5-0.4-1.4,0.4-2.6c1.2-1.7,2.3-2.1,2.8-2.2c0.6-0.1,1.2,0.2,1.4,0.8c0.1,0.4,0.4,1.8-0.4,3.8c1.1,0,2-0.3,2.7-0.9
			c1.3-1.1,1.4-2.8,1.4-2.8c0-0.5,0.4-0.9,1-0.9c0.5,0,0.9,0.4,0.9,1c0,0.1-0.1,2.6-2,4.2c-1.2,1-2.9,1.5-4.9,1.3
			c-1,1.5-2.5,3.2-4.8,5.1C20.4,23.7,20.2,23.8,20,23.8 M25,14.4c-0.2,0.2-0.5,0.5-0.8,1c-0.3,0.5-0.3,0.7-0.3,0.8
			c0.1,0.1,0.3,0.2,0.5,0.3C24.8,15.6,25,14.9,25,14.4"/>
	</defs>
	<use xlink:href="#SVGID_15_"  style="overflow:visible;fill-rule:evenodd;clip-rule:evenodd;fill:#FFFFFF;"/>
	<clipPath id="SVGID_16_">
		<use xlink:href="#SVGID_15_"  style="overflow:visible;"/>
	</clipPath>
	<rect x="18.7" y="11.7" class="st10" width="13.9" height="12.4"/>
</g>
<g>
	<defs>
		<path id="SVGID_17_" d="M19.3,18.7c0,0-0.1,0-0.1,0c-0.5-0.1-0.9-0.6-0.8-1.1c0.6-4.2,0.8-10.8,0.8-10.8c0-0.5,0.4-0.9,1-0.9
			c0.5,0,0.9,0.4,0.9,1c0,0.3-0.2,6.8-0.9,11C20.1,18.4,19.7,18.7,19.3,18.7"/>
	</defs>
	<use xlink:href="#SVGID_17_"  style="overflow:visible;fill-rule:evenodd;clip-rule:evenodd;fill:#FFFFFF;"/>
	<clipPath id="SVGID_18_">
		<use xlink:href="#SVGID_17_"  style="overflow:visible;"/>
	</clipPath>
	<rect x="18" y="5.6" class="st11" width="3.4" height="13.5"/>
</g>
<g>
	<defs>
		<path id="SVGID_19_" d="M10.4,23.7c-0.3,0-0.6-0.1-0.7-0.4c-0.3-0.4-0.2-1,0.2-1.3c5.1-3.7,5.3-8.5,5.3-8.7c0-0.5,0.4-0.9,1-0.9
			c0.5,0,0.9,0.4,0.9,1c0,0.2-0.2,5.8-6.1,10.1C10.8,23.6,10.6,23.7,10.4,23.7"/>
	</defs>
	<use xlink:href="#SVGID_19_"  style="overflow:visible;fill-rule:evenodd;clip-rule:evenodd;fill:#FFFFFF;"/>
	<clipPath id="SVGID_20_">
		<use xlink:href="#SVGID_19_"  style="overflow:visible;"/>
	</clipPath>
	<rect x="9.1" y="12.1" class="st12" width="8.2" height="11.9"/>
</g>
<g class="st0">
	<defs>
		<path id="SVGID_21_" class="st0" d="M26.2,21.8c-0.5,0-0.9-0.4-0.9-0.9c0-0.5,0.4-0.9,0.9-1c0,0,1.5-0.1,3.5-0.5
			c0.5-0.1,1,0.2,1.1,0.7c0.1,0.5-0.2,1-0.7,1.1C27.9,21.7,26.3,21.8,26.2,21.8C26.3,21.8,26.3,21.8,26.2,21.8"/>
	</defs>
	<use xlink:href="#SVGID_21_"  style="overflow:visible;fill-rule:evenodd;clip-rule:evenodd;fill:#FFFFFF;"/>
	<clipPath id="SVGID_22_">
		<use xlink:href="#SVGID_21_"  style="overflow:visible;"/>
	</clipPath>
	<rect x="25" y="19.1" class="st13" width="6.2" height="3"/>
</g>
<g>
	<defs>
		<line id="SVGID_23_" x1="5" y1="27.8" x2="14.1" y2="27.8"/>
	</defs>
	<clipPath id="SVGID_24_">
		<use xlink:href="#SVGID_23_"  style="overflow:visible;"/>
	</clipPath>
	<rect x="4.6" y="27.4" class="st14" width="9.8" height="0.8"/>
</g>
<g>
	<defs>
		<path id="SVGID_25_" d="M14,27.8h-0.4c0,0-0.1,0-0.1-0.1s0-0.1,0.1-0.1H14C14.1,27.6,14.1,27.7,14,27.8
			C14.1,27.8,14.1,27.8,14,27.8 M13.2,27.8h-0.4c0,0-0.1,0-0.1-0.1s0-0.1,0.1-0.1h0.4C13.2,27.6,13.3,27.7,13.2,27.8
			C13.3,27.8,13.2,27.8,13.2,27.8 M12.3,27.8h-0.4c0,0-0.1,0-0.1-0.1s0-0.1,0.1-0.1h0.4C12.4,27.6,12.4,27.7,12.3,27.8
			C12.4,27.8,12.4,27.8,12.3,27.8 M11.5,27.8h-0.4c0,0-0.1,0-0.1-0.1s0-0.1,0.1-0.1h0.4C11.5,27.6,11.6,27.7,11.5,27.8
			C11.6,27.8,11.5,27.8,11.5,27.8 M10.6,27.8h-0.4c0,0-0.1,0-0.1-0.1s0-0.1,0.1-0.1h0.4C10.7,27.6,10.7,27.7,10.6,27.8
			C10.7,27.8,10.7,27.8,10.6,27.8 M9.8,27.8H9.4c0,0-0.1,0-0.1-0.1s0-0.1,0.1-0.1h0.4C9.8,27.6,9.9,27.7,9.8,27.8
			C9.9,27.8,9.8,27.8,9.8,27.8 M8.9,27.8H8.5c0,0-0.1,0-0.1-0.1s0-0.1,0.1-0.1h0.4C9,27.6,9,27.7,8.9,27.8C9,27.8,9,27.8,8.9,27.8
			 M8.1,27.8H7.7c0,0-0.1,0-0.1-0.1s0-0.1,0.1-0.1h0.4C8.1,27.6,8.2,27.7,8.1,27.8C8.2,27.8,8.1,27.8,8.1,27.8 M7.2,27.8H6.8
			c0,0-0.1,0-0.1-0.1s0-0.1,0.1-0.1h0.4C7.3,27.6,7.3,27.7,7.2,27.8C7.3,27.8,7.3,27.8,7.2,27.8 M6.4,27.8H6c0,0-0.1,0-0.1-0.1
			s0-0.1,0.1-0.1h0.4C6.4,27.6,6.4,27.7,6.4,27.8C6.4,27.8,6.4,27.8,6.4,27.8 M5.5,27.8H5.1c0,0-0.1,0-0.1-0.1s0-0.1,0.1-0.1h0.4
			C5.6,27.6,5.6,27.7,5.5,27.8C5.6,27.8,5.6,27.8,5.5,27.8"/>
	</defs>
	<clipPath id="SVGID_26_">
		<use xlink:href="#SVGID_25_"  style="overflow:visible;"/>
	</clipPath>
	<rect x="4.6" y="27.3" class="st15" width="9.8" height="0.9"/>
</g>
<g>
	<defs>
		<path id="SVGID_27_" d="M23.8,27.8h-0.4c0,0-0.1,0-0.1-0.1s0-0.1,0.1-0.1h0.4C23.8,27.6,23.9,27.7,23.8,27.8
			C23.9,27.8,23.8,27.8,23.8,27.8 M22.9,27.8h-0.4c0,0-0.1,0-0.1-0.1s0-0.1,0.1-0.1h0.4C23,27.6,23,27.7,22.9,27.8
			C23,27.8,23,27.8,22.9,27.8 M22.1,27.8h-0.4c0,0-0.1,0-0.1-0.1s0-0.1,0.1-0.1h0.4C22.1,27.6,22.2,27.7,22.1,27.8
			C22.2,27.8,22.1,27.8,22.1,27.8 M21.2,27.8h-0.4c0,0-0.1,0-0.1-0.1s0-0.1,0.1-0.1h0.4C21.3,27.6,21.3,27.7,21.2,27.8
			C21.3,27.8,21.3,27.8,21.2,27.8 M20.4,27.8h-0.4c0,0-0.1,0-0.1-0.1s0-0.1,0.1-0.1h0.4C20.4,27.6,20.4,27.7,20.4,27.8
			C20.4,27.8,20.4,27.8,20.4,27.8 M19.5,27.8h-0.4c0,0-0.1,0-0.1-0.1s0-0.1,0.1-0.1h0.4C19.6,27.6,19.6,27.7,19.5,27.8
			C19.6,27.8,19.6,27.8,19.5,27.8 M18.7,27.8h-0.4c0,0-0.1,0-0.1-0.1s0-0.1,0.1-0.1h0.4C18.7,27.6,18.7,27.7,18.7,27.8
			C18.7,27.8,18.7,27.8,18.7,27.8 M17.8,27.8h-0.4c0,0-0.1,0-0.1-0.1s0-0.1,0.1-0.1h0.4C17.8,27.6,17.9,27.7,17.8,27.8
			C17.9,27.8,17.8,27.8,17.8,27.8 M17,27.8h-0.4c0,0-0.1,0-0.1-0.1s0-0.1,0.1-0.1H17C17,27.6,17,27.7,17,27.8
			C17,27.8,17,27.8,17,27.8 M16.1,27.8h-0.4c0,0-0.1,0-0.1-0.1s0-0.1,0.1-0.1h0.4C16.1,27.6,16.2,27.7,16.1,27.8
			C16.2,27.8,16.1,27.8,16.1,27.8"/>
	</defs>
	<clipPath id="SVGID_28_">
		<use xlink:href="#SVGID_27_"  style="overflow:visible;"/>
	</clipPath>
	<rect x="15.2" y="27.3" class="st16" width="9" height="0.9"/>
</g>
<g>
	<defs>
		<path id="SVGID_29_" d="M43.2,27.8h-0.4c0,0-0.1,0-0.1-0.1s0-0.1,0.1-0.1h0.4C43.2,27.6,43.3,27.7,43.2,27.8
			C43.3,27.8,43.2,27.8,43.2,27.8 M42.3,27.8h-0.4c0,0-0.1,0-0.1-0.1s0-0.1,0.1-0.1h0.4C42.4,27.6,42.4,27.7,42.3,27.8
			C42.4,27.8,42.4,27.8,42.3,27.8 M41.5,27.8H41c0,0-0.1,0-0.1-0.1s0-0.1,0.1-0.1h0.4C41.5,27.6,41.5,27.7,41.5,27.8
			C41.5,27.8,41.5,27.8,41.5,27.8 M40.6,27.8h-0.4c0,0-0.1,0-0.1-0.1s0-0.1,0.1-0.1h0.4C40.7,27.6,40.7,27.7,40.6,27.8
			C40.7,27.8,40.7,27.8,40.6,27.8 M39.8,27.8h-0.4c0,0-0.1,0-0.1-0.1s0-0.1,0.1-0.1h0.4C39.8,27.6,39.8,27.7,39.8,27.8
			C39.8,27.8,39.8,27.8,39.8,27.8 M38.9,27.8h-0.4c0,0-0.1,0-0.1-0.1s0-0.1,0.1-0.1h0.4C38.9,27.6,39,27.7,38.9,27.8
			C39,27.8,38.9,27.8,38.9,27.8 M38,27.8h-0.4c0,0-0.1,0-0.1-0.1s0-0.1,0.1-0.1H38C38.1,27.6,38.1,27.7,38,27.8
			C38.1,27.8,38.1,27.8,38,27.8 M37.2,27.8h-0.4c0,0-0.1,0-0.1-0.1s0-0.1,0.1-0.1h0.4C37.2,27.6,37.3,27.7,37.2,27.8
			C37.3,27.8,37.2,27.8,37.2,27.8 M36.3,27.8h-0.4c0,0-0.1,0-0.1-0.1s0-0.1,0.1-0.1h0.4C36.4,27.6,36.4,27.7,36.3,27.8
			C36.4,27.8,36.4,27.8,36.3,27.8 M35.5,27.8h-0.4c0,0-0.1,0-0.1-0.1s0-0.1,0.1-0.1h0.4C35.5,27.6,35.6,27.7,35.5,27.8
			C35.6,27.8,35.5,27.8,35.5,27.8"/>
	</defs>
	<clipPath id="SVGID_30_">
		<use xlink:href="#SVGID_29_"  style="overflow:visible;"/>
	</clipPath>
	<rect x="34.6" y="27.3" class="st17" width="9" height="0.9"/>
</g>
<g>
	<defs>
		<path id="SVGID_31_" d="M33.4,27.8H33c0,0-0.1,0-0.1-0.1s0-0.1,0.1-0.1h0.4C33.5,27.6,33.5,27.7,33.4,27.8
			C33.5,27.8,33.5,27.8,33.4,27.8 M32.6,27.8h-0.4c0,0-0.1,0-0.1-0.1s0-0.1,0.1-0.1h0.4C32.6,27.6,32.6,27.7,32.6,27.8
			C32.6,27.8,32.6,27.8,32.6,27.8 M31.7,27.8h-0.4c0,0-0.1,0-0.1-0.1s0-0.1,0.1-0.1h0.4C31.7,27.6,31.8,27.7,31.7,27.8
			C31.8,27.8,31.7,27.8,31.7,27.8 M30.9,27.8h-0.4c0,0-0.1,0-0.1-0.1s0-0.1,0.1-0.1h0.4C30.9,27.6,30.9,27.7,30.9,27.8
			C30.9,27.8,30.9,27.8,30.9,27.8 M30,27.8h-0.4c0,0-0.1,0-0.1-0.1s0-0.1,0.1-0.1H30C30,27.6,30.1,27.7,30,27.8
			C30.1,27.8,30,27.8,30,27.8 M29.1,27.8h-0.4c0,0-0.1,0-0.1-0.1s0-0.1,0.1-0.1h0.4C29.2,27.6,29.2,27.7,29.1,27.8
			C29.2,27.8,29.2,27.8,29.1,27.8 M28.3,27.8h-0.4c0,0-0.1,0-0.1-0.1s0-0.1,0.1-0.1h0.4C28.3,27.6,28.4,27.7,28.3,27.8
			C28.4,27.8,28.3,27.8,28.3,27.8 M27.4,27.8H27c0,0-0.1,0-0.1-0.1s0-0.1,0.1-0.1h0.4C27.5,27.6,27.5,27.7,27.4,27.8
			C27.5,27.8,27.5,27.8,27.4,27.8 M26.6,27.8h-0.4c0,0-0.1,0-0.1-0.1s0-0.1,0.1-0.1h0.4C26.6,27.6,26.6,27.7,26.6,27.8
			C26.6,27.8,26.6,27.8,26.6,27.8 M25.7,27.8h-0.4c0,0-0.1,0-0.1-0.1s0-0.1,0.1-0.1h0.4C25.8,27.6,25.8,27.7,25.7,27.8
			C25.8,27.8,25.8,27.8,25.7,27.8"/>
	</defs>
	<clipPath id="SVGID_32_">
		<use xlink:href="#SVGID_31_"  style="overflow:visible;"/>
	</clipPath>
	<rect x="24.8" y="27.3" class="st18" width="9" height="0.9"/>
</g>
<path class="st19" d="M24.5,27.8c0,6.5-4.5,11.6-4.6,11.8c3.1,1,9,1.1,9.6,1.1"/>
</svg>
