<?xml version="1.0" encoding="utf-8"?>
<!-- Generator: Adobe Illustrator 23.0.1, SVG Export Plug-In . SVG Version: 6.00 Build 0)  -->
<svg version="1.1" id="Layer_1" xmlns="http://www.w3.org/2000/svg" xmlns:xlink="http://www.w3.org/1999/xlink" x="0px" y="0px"
	 viewBox="0 0 48 48" style="enable-background:new 0 0 48 48;" xml:space="preserve">
<style type="text/css">
	.st0{fill:#FFFFFF;}
	.st1{opacity:0.54;}
</style>
<path class="st0" d="M19,39.9l16.2-4.3c-1.7,0.4-3.3,0.3-4.8-1.1l-5.8-5.9c-0.2-0.2-0.6-0.4-1-0.3l-14.6,4c-0.5,0.1-0.6,0.6-0.3,1
	l5.5,5.5C15.7,40.3,17.1,40.4,19,39.9z"/>
<path class="st0" d="M35.2,35.6c0.6-0.2,1.5-0.6,2.2-1.3c2.1-2.1,2.1-5.3,0-7.4L26.2,15.7c-2.1-2.1-2.1-5.3,0-7.4
	c0.6-0.6,1.3-1.1,2.2-1.3l-16.2,4.3c-0.7,0.2-1.5,0.6-2.2,1.3c-2,2-2,5.4-0.1,7.5h0l0.1,0.1l0,0l11.3,11c2.1,2.1,2,5.3,0,7.3
	c-0.6,0.6-1.3,1.1-2.2,1.3L35.2,35.6z"/>
<path class="st0" d="M17.2,13l5.6,5.6c0.3,0.3,0.9,0.4,1.2,0.3l14.6-4c0.5-0.1,0.6-0.6,0.3-1l-5.5-5.5h0c-1.4-1.3-3.3-1.9-5.1-1.4
	l-16.2,4.3C13.8,10.9,15.8,11.6,17.2,13z"/>
<path class="st1" d="M39.7,14.8c0.1-0.5,0-1-0.3-1.3l-5.5-5.5c0,0-0.1-0.1-0.1-0.1c-1.6-1.5-3.7-2.1-5.7-1.5l-16.2,4.3
	c-0.1,0-0.2,0.1-0.3,0.1c-0.8,0.3-1.6,0.8-2.2,1.4c-2.3,2.3-2.4,6-0.2,8.4c0,0.1,0.1,0.2,0.2,0.2l8.6,8.4l-9,2.5
	c-0.5,0.1-0.9,0.5-1,0.9c-0.1,0.5,0,1,0.3,1.3l5.5,5.5c1,1,2.1,1.5,3.5,1.5c0.5,0,1.1-0.1,1.7-0.2c0,0,0,0,0,0c0.1,0,0.1,0,0.2,0
	c0.1,0,0.1,0,0.2-0.1l16.1-4.3c0.4-0.1,1.5-0.6,2.5-1.5c1.1-1.1,1.8-2.6,1.8-4.2c0-1.6-0.6-3.1-1.8-4.2l-8.3-8.3l9.1-2.5
	C39.2,15.6,39.6,15.3,39.7,14.8z M14.7,38.3L9.4,33l9.7-2.6l1.5,1.5c0.7,0.7,1.1,1.5,1.2,2.3c0.3,1.4-0.1,2.9-1.2,4
	c-0.1,0.1-0.3,0.3-0.4,0.4c-0.4,0.3-0.7,0.5-1.1,0.7l-0.3,0.1C16.9,39.7,15.8,39.4,14.7,38.3z M27.9,18.6l8.9,8.9
	c0.9,0.9,1.3,2,1.3,3.1s-0.5,2.3-1.3,3.1c-0.5,0.5-1.2,0.9-1.8,1.1l-12.6,3.4c0,0,0,0,0,0c0.1-0.1,0.1-0.2,0.1-0.3
	c0.1-0.2,0.3-0.5,0.4-0.7C23,37.1,23,37,23,36.9c0.1-0.2,0.1-0.4,0.2-0.7c0-0.1,0-0.3,0.1-0.4c0-0.2,0.1-0.4,0.1-0.6
	c0-0.1,0-0.3,0-0.4c0-0.2,0-0.4-0.1-0.6c0-0.1,0-0.3-0.1-0.4c0-0.2-0.1-0.4-0.2-0.6c0-0.1-0.1-0.3-0.1-0.4c-0.1-0.2-0.2-0.4-0.3-0.7
	c-0.1-0.1-0.1-0.2-0.2-0.3c-0.2-0.3-0.5-0.6-0.7-0.9L19.8,29c0,0,0,0,0,0l-9.5-9.3c0,0,0,0,0,0c-1.7-1.8-1.7-4.7,0.1-6.4
	c0.5-0.5,1.2-0.9,1.8-1.1l0.2-0.1c0.4-0.1,0.7-0.1,1.1,0c0,0,0,0,0,0c0.2,0,0.3,0,0.5,0.1c0,0,0.1,0,0.1,0c0.1,0,0.3,0.1,0.4,0.1
	c0.1,0,0.1,0,0.2,0.1c0.1,0,0.2,0.1,0.4,0.1c0.1,0,0.2,0.1,0.2,0.1c0.1,0,0.2,0.1,0.3,0.2c0.1,0.1,0.2,0.1,0.3,0.2
	c0.1,0,0.1,0.1,0.2,0.1c0.2,0.1,0.3,0.3,0.5,0.4l5.6,5.6c0.1,0.1,0.2,0.2,0.4,0.3c0,0,0.1,0,0.1,0.1c0.1,0.1,0.2,0.1,0.3,0.1
	c0,0,0.1,0,0.1,0c0.1,0,0.3,0.1,0.4,0.1c0,0,0,0,0.1,0c0,0,0,0,0,0c0.2,0,0.3,0,0.5-0.1L27.9,18.6z M23.7,18.2c-0.1,0-0.3,0-0.5-0.1
	l-5.6-5.6c-0.2-0.2-0.5-0.5-0.8-0.7c-0.1-0.1-0.1-0.1-0.2-0.2c-0.2-0.2-0.5-0.3-0.7-0.4c0,0-0.1-0.1-0.1-0.1l12.7-3.4
	c1.5-0.4,3.1,0,4.3,1.2c0,0,0.1,0.1,0.1,0.1l5.2,5.2L23.7,18.2z"/>
</svg>
