<?xml version="1.0" encoding="utf-8"?>
<!-- Generator: Adobe Illustrator 23.0.1, SVG Export Plug-In . SVG Version: 6.00 Build 0)  -->
<svg version="1.1" id="Layer_1" xmlns="http://www.w3.org/2000/svg" xmlns:xlink="http://www.w3.org/1999/xlink" x="0px" y="0px"
	 viewBox="0 0 40 40" style="enable-background:new 0 0 40 40;" xml:space="preserve">
<style type="text/css">
	.st0{fill:#ED3248;}
	.st1{opacity:0.9;fill:#E5E5E5;enable-background:new    ;}
	.st2{opacity:0.84;fill:#F4F4F4;enable-background:new    ;}
	.st3{opacity:0.9;fill:#FFFFFF;enable-background:new    ;}
</style>
<path class="st0" d="M20,40c8.8,0,13.6,0,16.8-3.2S40,28.8,40,20s0-13.6-3.2-16.8S28.8,0,20,0S6.4,0,3.2,3.2S0,11.2,0,20
	s0,13.6,3.2,16.8S11.2,40,20,40z"/>
<path class="st1" d="M16.7,30.8L27.3,28c-1.1,0.3-2.2,0.2-3.1-0.7l-3.8-3.8c-0.1-0.1-0.4-0.3-0.6-0.2l-9.5,2.6
	c-0.4,0.1-0.4,0.4-0.2,0.6l3.6,3.6C14.5,31,15.6,31.2,16.7,30.8z"/>
<path class="st2" d="M27.3,28c0.4-0.1,1-0.4,1.4-0.8c1.3-1.3,1.3-3.5,0-4.8L21.4,15c-1.3-1.3-1.3-3.5,0-4.8c0.4-0.4,0.8-0.7,1.4-0.8
	l-10.6,2.8c-0.5,0.2-1,0.4-1.4,0.8c-1.3,1.3-1.3,3.5-0.1,4.9l0,0l0.1,0.1c0,0,0,0,0,0l7.4,7.2c1.3,1.3,1.3,3.5,0,4.8
	c-0.4,0.4-0.8,0.7-1.4,0.8L27.3,28z"/>
<path class="st3" d="M15.5,13.2l3.7,3.7c0.2,0.2,0.6,0.3,0.8,0.2l9.5-2.6c0.4-0.1,0.4-0.4,0.2-0.6l-3.6-3.6l0,0
	C25.2,9.3,24,9,22.8,9.3l-10.6,2.8C13.3,11.8,14.6,12.3,15.5,13.2z"/>
</svg>
