<?xml version="1.0" standalone="no"?>
<!DOCTYPE svg PUBLIC "-//W3C//DTD SVG 20010904//EN"
 "http://www.w3.org/TR/2001/REC-SVG-20010904/DTD/svg10.dtd">
<svg version="1.0" xmlns="http://www.w3.org/2000/svg"
 width="700.000000pt" height="700.000000pt" viewBox="0 0 700.000000 700.000000"
 preserveAspectRatio="xMidYMid meet">
<metadata>
Created by potrace 1.11, written by Peter Selinger 2001-2013
</metadata>
<g transform="translate(0.000000,700.000000) scale(0.100000,-0.100000)"
fill="#000000" stroke="none">
<path d="M4300 6138 c-68 -13 -200 -45 -345 -83 -118 -32 -453 -120 -1140
-301 -239 -63 -634 -167 -965 -255 -85 -23 -159 -42 -165 -43 -51 -10 -165
-57 -165 -68 0 -5 -4 -7 -9 -4 -12 8 -139 -63 -198 -110 -73 -58 -168 -166
-156 -178 3 -3 1 -6 -5 -6 -10 0 -90 -151 -96 -181 -1 -8 -8 -32 -14 -54 -6
-22 -14 -55 -17 -74 -3 -19 -8 -38 -11 -43 -3 -4 1 -8 8 -8 9 0 10 -2 1 -8
-20 -13 -8 -253 16 -322 5 -14 12 -38 16 -54 11 -49 82 -184 133 -249 53 -70
160 -173 174 -169 5 1 7 -1 4 -6 -6 -10 632 -638 645 -635 5 2 8 -1 6 -6 -1
-5 84 -93 188 -196 449 -441 556 -547 552 -551 -3 -4 -871 -243 -937 -259 -8
-2 -91 -24 -185 -50 -93 -26 -192 -52 -220 -60 -231 -62 -321 -88 -341 -101
-25 -17 -42 -58 -36 -92 4 -27 944 -973 1012 -1019 141 -95 240 -127 395 -127
61 0 124 3 140 6 27 5 209 54 1085 288 530 142 1653 440 1657 440 2 0 1 5 -3
12 -4 7 -3 8 4 4 14 -8 128 45 202 95 108 73 209 180 250 264 8 17 19 37 26
45 14 18 62 154 69 195 3 17 8 46 12 65 13 76 0 295 -18 285 -5 -4 -6 1 -3 9
3 9 3 24 -1 34 -5 9 -10 25 -11 34 -8 39 -48 117 -57 111 -6 -3 -7 -1 -3 6 4
6 -9 39 -30 74 -28 47 -206 232 -748 774 -390 392 -714 709 -719 706 -6 -3 -7
-2 -4 4 3 5 -18 33 -48 63 -56 54 -66 70 -41 70 8 0 205 52 438 116 232 63
596 162 808 220 212 57 398 109 413 116 37 15 57 45 57 88 0 33 -27 62 -482
516 -289 287 -508 497 -544 521 -108 73 -243 131 -344 148 -58 11 -202 12
-250 3z m-1560 -2012 c0 -2 -8 -10 -17 -17 -16 -13 -17 -12 -4 4 13 16 21 21
21 13z m2071 -1123 c13 -16 12 -17 -3 -4 -17 13 -22 21 -14 21 2 0 10 -8 17
-17z m324 -2 c-9 -8 -36 -10 -30 -2 2 4 11 8 20 8 8 0 13 -3 10 -6z"/>
</g>
</svg>
